<svg width="120" height="120" viewBox="0 0 120 120" fill="none" xmlns="http://www.w3.org/2000/svg">
    <defs>
        <linearGradient id="tech_gradient" x1="0%" y1="0%" x2="100%" y2="100%">
            <stop offset="0%" style="stop-color:#FF00CC" /> <stop offset="100%" style="stop-color:#3333FF" /> </linearGradient>
        
        <linearGradient id="sparkle_gradient" x1="50%" y1="0%" x2="50%" y2="100%">
             <stop offset="0%" style="stop-color:#00FFFF" /> <stop offset="100%" style="stop-color:#FF00FF" /> </linearGradient>
        
        <pattern id="grid_pattern" width="10" height="10" patternUnits="userSpaceOnUse">
            <path d="M 10 0 L 0 0 0 10" fill="none" stroke="white" stroke-width="0.5" opacity="0.1"/>
        </pattern>
    </defs>

    <g transform="translate(10, 10)">
        <rect x="0" y="0" width="100" height="100" rx="24" fill="url(#tech_gradient)" opacity="0.2"/>
        <rect x="3" y="3" width="94" height="94" rx="21" stroke="url(#tech_gradient)" stroke-width="3"/>
        
        <rect x="6" y="6" width="88" height="88" rx="18" fill="#1a1a2e" /> <rect x="6" y="6" width="88" height="88" rx="18" fill="url(#grid_pattern)" />
        
        <g transform="translate(50, 50)">
             <path d="M0 -35 C5 -15 15 -5 35 0 C15 5 5 15 0 35 C-5 15 -15 5 -35 0 C-15 -5 -5 -15 0 -35 Z" fill="url(#tech_gradient)" opacity="0.4" transform="scale(1.1)"/>
            <path d="M0 -32 C5 -12 12 -5 32 0 C12 5 5 12 0 32 C-5 12 -12 5 -32 0 C-12 -5 -5 -12 0 -32 Z" fill="url(#sparkle_gradient)"/>
            
            <circle cx="25" cy="-25" r="4" fill="#00FFFF" opacity="0.8"/>
            <circle cx="-28" cy="20" r="3" fill="#FF00CC" opacity="0.8"/>
             <rect x="-40" y="-10" width="8" height="2" rx="1" fill="#00FFFF" opacity="0.6" />
             <rect x="32" y="8" width="8" height="2" rx="1" fill="#FF00CC" opacity="0.6" />
        </g>
    </g>
</svg>